<?xml version="1.0" encoding="UTF-8" standalone="no"?>

<svg
   width="512"
   height="512"
   viewBox="0 0 512 512"
   version="1.1"
   id="svg1"
   xmlns="http://www.w3.org/2000/svg"
   xmlns:svg="http://www.w3.org/2000/svg">
  <defs
     id="defs1" />
  <g
     id="layer1">
    <path
       id="path1"
       style="fill:#000000;stroke:#0d0d0d;stroke-width:24.0238;stroke-linejoin:round;paint-order:markers fill stroke;stroke-opacity:1;fill-opacity:1"
       d="M 256 62.001953 A 97.997154 97.997177 0 0 0 158.00195 160 A 97.997154 97.997177 0 0 0 256 257.99805 A 97.997154 97.997177 0 0 0 353.99805 160 A 97.997154 97.997177 0 0 0 256 62.001953 z M 256 258.01172 A 197.98813 197.98811 0 0 0 58.011719 456 A 197.98813 197.98811 0 0 0 58.574219 463.86133 L 453.42578 463.86133 A 197.98813 197.98811 0 0 0 453.98828 456 A 197.98813 197.98811 0 0 0 256 258.01172 z " />
  </g>
</svg>
