<?xml version="1.0" encoding="UTF-8" standalone="no"?>

<svg
   width="512"
   height="512"
   viewBox="0 0 512 512"
   version="1.1"
   id="svg1"
   xmlns="http://www.w3.org/2000/svg"
   xmlns:svg="http://www.w3.org/2000/svg">
  <defs
     id="defs1" />
  <g
     id="layer1">
    <path
       id="rect1"
       style="fill:#ffffff;stroke:#f2f2f2;stroke-width:24;stroke-dasharray:none;stroke-opacity:1;paint-order:markers fill stroke;stroke-linejoin:round;stroke-linecap:butt;stroke-dashoffset:0;fill-opacity:1"
       d="M 324.46875 17.591797 L 324.46875 85.105469 C 324.46875 99.59403 312.80496 111.25977 298.31641 111.25977 L 17.591797 111.25977 L 17.591797 438.68164 C 17.591797 469.55417 42.445832 494.4082 73.318359 494.4082 L 438.68164 494.4082 C 469.55417 494.4082 494.4082 469.55417 494.4082 438.68164 L 494.4082 73.318359 C 494.4082 42.445832 469.55417 17.591797 438.68164 17.591797 L 324.46875 17.591797 z M 56.609375 52.544922 C 48.10192 52.544922 41.253906 59.394888 41.253906 67.902344 L 41.253906 95.900391 C 41.253906 104.40785 48.10192 111.25586 56.609375 111.25586 L 268.37305 111.25586 C 276.8805 111.25586 283.72852 104.40785 283.72852 95.900391 L 283.72852 67.902344 C 283.72852 59.394888 276.8805 52.544922 268.37305 52.544922 L 56.609375 52.544922 z " />
  </g>
</svg>
