<?xml version="1.0" encoding="UTF-8" standalone="no"?>
<!-- Created with Inkscape (http://www.inkscape.org/) -->

<svg
   width="512"
   height="512"
   viewBox="0 0 512 512"
   version="1.1"
   id="svg1"
   inkscape:version="1.3.2 (091e20e, 2023-11-25, custom)"
   sodipodi:docname="multiple-folder.svg"
   inkscape:export-filename="simple-folder-w.svg"
   inkscape:export-xdpi="96"
   inkscape:export-ydpi="96"
   xmlns:inkscape="http://www.inkscape.org/namespaces/inkscape"
   xmlns:sodipodi="http://sodipodi.sourceforge.net/DTD/sodipodi-0.dtd"
   xmlns="http://www.w3.org/2000/svg"
   xmlns:svg="http://www.w3.org/2000/svg">
  <sodipodi:namedview
     id="namedview1"
     pagecolor="#505050"
     bordercolor="#eeeeee"
     borderopacity="1"
     inkscape:showpageshadow="0"
     inkscape:pageopacity="0"
     inkscape:pagecheckerboard="0"
     inkscape:deskcolor="#505050"
     inkscape:document-units="px"
     showgrid="true"
     inkscape:zoom="1"
     inkscape:cx="71"
     inkscape:cy="247.5"
     inkscape:window-width="1920"
     inkscape:window-height="1009"
     inkscape:window-x="1912"
     inkscape:window-y="-8"
     inkscape:window-maximized="1"
     inkscape:current-layer="layer1" />
  <defs
     id="defs1" />
  <g
     inkscape:label="Taso 1"
     inkscape:groupmode="layer"
     id="layer1">
    <path
       id="path4"
       style="fill:none;stroke:#000000;stroke-width:16.7727;stroke-linecap:butt;stroke-linejoin:round;stroke-dasharray:none;stroke-dashoffset:0;stroke-opacity:1;paint-order:markers fill stroke"
       d="M 222.84961 8.3867188 L 222.84961 55.568359 C 222.84961 65.693819 214.69774 73.847656 204.57227 73.847656 L 8.3867188 73.847656 L 8.3867188 302.66797 C 8.3867188 324.24351 25.756495 341.61328 47.332031 341.61328 L 89.386719 341.61328 L 89.386719 154.84766 L 285.57227 154.84766 C 295.69774 154.84766 303.84961 146.69382 303.84961 136.56836 L 303.84961 89.386719 L 341.61328 89.386719 L 341.61328 47.332031 C 341.61328 25.756494 324.24351 8.3867188 302.66797 8.3867188 L 222.84961 8.3867188 z " />
    <path
       id="path5"
       style="fill:none;stroke:#000000;stroke-width:16.7727;stroke-linecap:butt;stroke-linejoin:round;stroke-dasharray:none;stroke-dashoffset:0;stroke-opacity:1;paint-order:markers fill stroke"
       d="m 384.85001,170.38635 v 47.18252 c 0,10.12547 -8.15132,18.27817 -18.2768,18.27817 H 170.38635 V 464.6687 c 0,21.57556 17.36944,38.94499 38.945,38.94499 H 464.6687 c 21.57556,0 38.94499,-17.36943 38.94499,-38.94499 V 209.33135 c 0,-21.57556 -17.36943,-38.945 -38.94499,-38.945 z" />
    <path
       id="path6"
       style="fill:none;stroke:#000000;stroke-width:16.7727;stroke-linecap:butt;stroke-linejoin:round;stroke-dasharray:none;stroke-dashoffset:0;stroke-opacity:1;paint-order:markers fill stroke"
       d="M 303.84961 89.386719 L 303.84961 136.56836 C 303.84961 146.69382 295.69774 154.84766 285.57227 154.84766 L 89.386719 154.84766 L 89.386719 383.66797 C 89.386719 405.24351 106.75649 422.61328 128.33203 422.61328 L 170.38672 422.61328 L 170.38672 235.84766 L 366.57227 235.84766 C 376.69774 235.84766 384.84961 227.69382 384.84961 217.56836 L 384.84961 170.38672 L 422.61328 170.38672 L 422.61328 128.33203 C 422.61328 106.75649 405.24351 89.386719 383.66797 89.386719 L 303.84961 89.386719 z " />
  </g>
</svg>
