<?xml version="1.0" encoding="UTF-8" standalone="no"?>
<!-- Created with Inkscape (http://www.inkscape.org/) -->

<svg
   width="512"
   height="512"
   viewBox="0 0 512 512"
   version="1.1"
   id="svg1"
   inkscape:version="1.3.2 (091e20e, 2023-11-25, custom)"
   sodipodi:docname="simple-folder-w-file.svg"
   xmlns:inkscape="http://www.inkscape.org/namespaces/inkscape"
   xmlns:sodipodi="http://sodipodi.sourceforge.net/DTD/sodipodi-0.dtd"
   xmlns="http://www.w3.org/2000/svg"
   xmlns:svg="http://www.w3.org/2000/svg">
  <sodipodi:namedview
     id="namedview1"
     pagecolor="#505050"
     bordercolor="#eeeeee"
     borderopacity="1"
     inkscape:showpageshadow="0"
     inkscape:pageopacity="0"
     inkscape:pagecheckerboard="0"
     inkscape:deskcolor="#505050"
     inkscape:document-units="px"
     showgrid="true"
     inkscape:zoom="0.81152347"
     inkscape:cx="104.74127"
     inkscape:cy="97.963895"
     inkscape:window-width="1920"
     inkscape:window-height="1009"
     inkscape:window-x="1912"
     inkscape:window-y="-8"
     inkscape:window-maximized="1"
     inkscape:current-layer="layer1" />
  <defs
     id="defs1" />
  <g
     inkscape:label="Taso 1"
     inkscape:groupmode="layer"
     id="layer1">
    <path
       id="rect1"
       style="fill:none;stroke:#000000;stroke-width:24;stroke-dasharray:none;stroke-opacity:1;paint-order:markers fill stroke;stroke-linejoin:round;stroke-linecap:butt;stroke-dashoffset:0"
       d="M 324.46875 17.591797 L 324.46875 85.105469 C 324.46875 99.59403 312.80496 111.25977 298.31641 111.25977 L 17.591797 111.25977 L 17.591797 438.68164 C 17.591797 469.55417 42.445832 494.4082 73.318359 494.4082 L 438.68164 494.4082 C 469.55417 494.4082 494.4082 469.55417 494.4082 438.68164 L 494.4082 73.318359 C 494.4082 42.445832 469.55417 17.591797 438.68164 17.591797 L 324.46875 17.591797 z M 56.609375 52.544922 C 48.10192 52.544922 41.253906 59.394888 41.253906 67.902344 L 41.253906 95.900391 C 41.253906 104.40785 48.10192 111.25586 56.609375 111.25586 L 268.37305 111.25586 C 276.8805 111.25586 283.72852 104.40785 283.72852 95.900391 L 283.72852 67.902344 C 283.72852 59.394888 276.8805 52.544922 268.37305 52.544922 L 56.609375 52.544922 z " />
  </g>
</svg>
