<?xml version="1.0" encoding="UTF-8" standalone="no"?>
<!-- Created with Inkscape (http://www.inkscape.org/) -->

<svg
   width="512"
   height="512"
   viewBox="0 0 512 512"
   version="1.1"
   id="svg1"
   inkscape:version="1.3.2 (091e20e, 2023-11-25, custom)"
   sodipodi:docname="simple-user.svg"
   xmlns:inkscape="http://www.inkscape.org/namespaces/inkscape"
   xmlns:sodipodi="http://sodipodi.sourceforge.net/DTD/sodipodi-0.dtd"
   xmlns="http://www.w3.org/2000/svg"
   xmlns:svg="http://www.w3.org/2000/svg">
  <sodipodi:namedview
     id="namedview1"
     pagecolor="#505050"
     bordercolor="#eeeeee"
     borderopacity="1"
     inkscape:showpageshadow="0"
     inkscape:pageopacity="0"
     inkscape:pagecheckerboard="0"
     inkscape:deskcolor="#505050"
     inkscape:document-units="px"
     inkscape:zoom="0.81152344"
     inkscape:cx="142.94103"
     inkscape:cy="207.63418"
     inkscape:window-width="1920"
     inkscape:window-height="1009"
     inkscape:window-x="1912"
     inkscape:window-y="-8"
     inkscape:window-maximized="1"
     inkscape:current-layer="layer1" />
  <defs
     id="defs1" />
  <g
     inkscape:label="Taso 1"
     inkscape:groupmode="layer"
     id="layer1">
    <path
       id="path1"
       style="fill:none;stroke:#000000;stroke-width:24.0238;stroke-linejoin:round;paint-order:markers fill stroke;stroke-opacity:1"
       d="M 256 62.001953 A 97.997154 97.997177 0 0 0 158.00195 160 A 97.997154 97.997177 0 0 0 256 257.99805 A 97.997154 97.997177 0 0 0 353.99805 160 A 97.997154 97.997177 0 0 0 256 62.001953 z M 256 258.01172 A 197.98813 197.98811 0 0 0 58.011719 456 A 197.98813 197.98811 0 0 0 58.574219 463.86133 L 453.42578 463.86133 A 197.98813 197.98811 0 0 0 453.98828 456 A 197.98813 197.98811 0 0 0 256 258.01172 z " />
  </g>
</svg>
